<svg xmlns="http://www.w3.org/2000/svg" width="663" height="359" fill="none" viewBox="0 0 663 359"><g opacity=".03"><mask id="mask0" width="663" height="359" x="0" y="0" mask-type="alpha" maskUnits="userSpaceOnUse"><rect width="661.963" height="358" x=".5" y=".5" fill="#fff" stroke="#000"/></mask><g mask="url(#mask0)"><rect width="13.786" height="13.786" x="-.189" y=".658" stroke="#734a90" transform="matrix(0.517621 0.834389 -0.896546 0.481735 668.328 5.286)"/><rect width="13.786" height="13.786" x="-.189" y=".658" stroke="#734a90" transform="matrix(0.517621 0.834389 -0.896546 0.481735 661.197 30.0563)"/><rect width="13.786" height="13.786" x="-.189" y=".658" stroke="#734a90" transform="matrix(0.517621 0.834389 -0.896546 0.481735 654.065 54.8251)"/><rect width="13.786" height="13.786" x="-.189" y=".658" stroke="#734a90" transform="matrix(0.517621 0.834389 -0.896546 0.481735 647.04 79.621)"/><rect width="13.786" height="13.786" x="-.189" y=".658" stroke="#734a90" transform="matrix(0.517621 0.834389 -0.896546 0.481735 639.116 107.143)"/><rect width="13.32" height="14.239" x="-.623" y=".36" stroke="#734a90" transform="matrix(-0.276671 0.960965 -0.970286 -0.241963 675.528 120.06)"/><rect width="13.786" height="13.786" x="-.189" y=".658" stroke="#734a90" transform="matrix(0.517621 0.834389 -0.896546 0.481735 631.191 134.664)"/><rect width="13.32" height="14.239" x="-.623" y=".36" stroke="#734a90" transform="matrix(-0.276671 0.960965 -0.970286 -0.241963 667.602 147.582)"/><rect width="13.786" height="13.786" x="-.189" y=".658" stroke="#734a90" transform="matrix(0.517621 0.834389 -0.896546 0.481735 623.266 162.186)"/><rect width="13.32" height="14.239" x="-.623" y=".36" stroke="#734a90" transform="matrix(-0.276671 0.960965 -0.970286 -0.241963 659.678 175.103)"/><rect width="13.786" height="13.786" x="-.189" y=".658" stroke="#734a90" transform="matrix(0.517621 0.834389 -0.896546 0.481735 615.344 189.707)"/><rect width="13.32" height="14.239" x="-.623" y=".36" stroke="#734a90" transform="matrix(-0.276671 0.960965 -0.970286 -0.241963 651.756 202.624)"/><rect width="13.786" height="13.786" x="-.189" y=".658" stroke="#734a90" transform="matrix(0.517621 0.834389 -0.896546 0.481735 607.42 217.229)"/><rect width="13.786" height="13.786" x="-.189" y=".658" stroke="#734a90" transform="matrix(0.517621 0.834389 -0.896546 0.481735 668.887 232.557)"/><rect width="13.32" height="14.239" x="-.623" y=".36" stroke="#734a90" transform="matrix(-0.276671 0.960965 -0.970286 -0.241963 643.832 230.146)"/><rect width="13.786" height="13.786" x="-.189" y=".658" stroke="#734a90" transform="matrix(0.517621 0.834389 -0.896546 0.481735 599.505 245.431)"/><rect width="13.786" height="13.786" x="-.189" y=".658" stroke="#734a90" transform="matrix(0.517621 0.834389 -0.896546 0.481735 660.971 260.759)"/><rect width="13.32" height="14.239" x="-.623" y=".36" stroke="#734a90" transform="matrix(-0.276671 0.960965 -0.970286 -0.241963 635.916 258.348)"/><rect width="13.786" height="13.786" x="-.189" y=".658" stroke="#734a90" transform="matrix(0.517621 0.834389 -0.896546 0.481735 592.346 270.298)"/><rect width="13.786" height="13.786" x="-.189" y=".658" stroke="#734a90" transform="matrix(0.517621 0.834389 -0.896546 0.481735 653.812 285.626)"/><rect width="13.32" height="14.239" x="-.623" y=".36" stroke="#734a90" transform="matrix(-0.276671 0.960965 -0.970286 -0.241963 628.757 283.215)"/><rect width="13.786" height="13.786" x="-.189" y=".658" stroke="#734a90" transform="matrix(0.517621 0.834389 -0.896546 0.481735 585.215 295.068)"/><rect width="13.786" height="13.786" x="-.189" y=".658" stroke="#734a90" transform="matrix(0.517621 0.834389 -0.896546 0.481735 646.681 310.396)"/><rect width="13.32" height="14.239" x="-.623" y=".36" stroke="#734a90" transform="matrix(-0.276671 0.960965 -0.970286 -0.241963 621.626 307.985)"/><rect width="13.786" height="13.786" x="-.189" y=".658" stroke="#734a90" transform="matrix(0.517621 0.834389 -0.896546 0.481735 578.083 319.837)"/><rect width="13.786" height="13.786" x="-.189" y=".658" stroke="#734a90" transform="matrix(0.517621 0.834389 -0.896546 0.481735 639.55 335.165)"/><rect width="13.32" height="14.239" x="-.623" y=".36" stroke="#734a90" transform="matrix(-0.276671 0.960965 -0.970286 -0.241963 614.494 332.754)"/><rect width="13.786" height="13.786" x="-.189" y=".658" stroke="#734a90" transform="matrix(0.517621 0.834389 -0.896546 0.481735 571.056 344.633)"/><rect width="13.32" height="14.239" x="-.623" y=".36" stroke="#734a90" transform="matrix(-0.276671 0.960965 -0.970286 -0.241963 607.468 357.55)"/><rect width="13.786" height="13.786" x="-.189" y=".658" stroke="#734a90" transform="matrix(0.517621 0.834389 -0.896546 0.481735 670.749 342.946)"/><rect width="13.786" height="13.786" x="-.189" y=".658" stroke="#734a90" transform="matrix(0.517621 0.834389 -0.896546 0.481735 180.667 -7.18055)"/><rect width="13.786" height="13.786" x="-.189" y=".658" stroke="#734a90" transform="matrix(0.517621 0.834389 -0.896546 0.481735 242.134 8.14757)"/><rect width="13.32" height="14.239" x="-.623" y=".36" stroke="#734a90" transform="matrix(-0.276671 0.960965 -0.970286 -0.241963 217.079 5.73655)"/><rect width="13.786" height="13.786" x="-.189" y=".658" stroke="#734a90" transform="matrix(0.517621 0.834389 -0.896546 0.481735 172.743 20.3404)"/><rect width="13.786" height="13.786" x="-.189" y=".658" stroke="#734a90" transform="matrix(0.517621 0.834389 -0.896546 0.481735 234.21 35.6686)"/><rect width="13.32" height="14.239" x="-.623" y=".36" stroke="#734a90" transform="matrix(-0.276671 0.960965 -0.970286 -0.241963 209.155 33.2575)"/><rect width="13.786" height="13.786" x="-.189" y=".658" stroke="#734a90" transform="matrix(0.517621 0.834389 -0.896546 0.481735 164.818 47.8629)"/><rect width="13.786" height="13.786" x="-.189" y=".658" stroke="#734a90" transform="matrix(0.517621 0.834389 -0.896546 0.481735 226.285 63.191)"/><rect width="13.32" height="14.239" x="-.623" y=".36" stroke="#734a90" transform="matrix(-0.276671 0.960965 -0.970286 -0.241963 201.23 60.78)"/><rect width="13.786" height="13.786" x="-.189" y=".658" stroke="#734a90" transform="matrix(0.517621 0.834389 -0.896546 0.481735 156.896 75.3844)"/><rect width="13.786" height="13.786" x="-.189" y=".658" stroke="#734a90" transform="matrix(0.517621 0.834389 -0.896546 0.481735 218.363 90.7125)"/><rect width="13.32" height="14.239" x="-.623" y=".36" stroke="#734a90" transform="matrix(-0.276671 0.960965 -0.970286 -0.241963 193.308 88.3015)"/><rect width="13.786" height="13.786" x="-.189" y=".658" stroke="#734a90" transform="matrix(0.517621 0.834389 -0.896546 0.481735 148.972 102.906)"/><rect width="13.786" height="13.786" x="-.189" y=".658" stroke="#734a90" transform="matrix(0.517621 0.834389 -0.896546 0.481735 210.439 118.234)"/><rect width="13.32" height="14.239" x="-.623" y=".36" stroke="#734a90" transform="matrix(-0.276671 0.960965 -0.970286 -0.241963 185.384 115.823)"/><rect width="13.786" height="13.786" x="-.189" y=".658" stroke="#734a90" transform="matrix(0.517621 0.834389 -0.896546 0.481735 141.056 131.107)"/><rect width="13.786" height="13.786" x="-.189" y=".658" stroke="#734a90" transform="matrix(0.517621 0.834389 -0.896546 0.481735 202.522 146.435)"/><rect width="13.32" height="14.239" x="-.623" y=".36" stroke="#734a90" transform="matrix(-0.276671 0.960965 -0.970286 -0.241963 177.467 144.024)"/><rect width="13.786" height="13.786" x="-.189" y=".658" stroke="#734a90" transform="matrix(0.517621 0.834389 -0.896546 0.481735 133.896 155.974)"/><rect width="13.786" height="13.786" x="-.189" y=".658" stroke="#734a90" transform="matrix(0.517621 0.834389 -0.896546 0.481735 195.362 171.302)"/><rect width="13.32" height="14.239" x="-.623" y=".36" stroke="#734a90" transform="matrix(-0.276671 0.960965 -0.970286 -0.241963 170.307 168.891)"/><rect width="13.786" height="13.786" x="-.189" y=".658" stroke="#734a90" transform="matrix(0.517621 0.834389 -0.896546 0.481735 126.765 180.744)"/><rect width="13.786" height="13.786" x="-.189" y=".658" stroke="#734a90" transform="matrix(0.517621 0.834389 -0.896546 0.481735 188.231 196.072)"/><rect width="13.32" height="14.239" x="-.623" y=".36" stroke="#734a90" transform="matrix(-0.276671 0.960965 -0.970286 -0.241963 163.176 193.661)"/><rect width="13.786" height="13.786" x="-.189" y=".658" stroke="#734a90" transform="matrix(0.517621 0.834389 -0.896546 0.481735 119.634 205.513)"/><rect width="13.786" height="13.786" x="-.189" y=".658" stroke="#734a90" transform="matrix(0.517621 0.834389 -0.896546 0.481735 181.101 220.841)"/><rect width="13.32" height="14.239" x="-.623" y=".36" stroke="#734a90" transform="matrix(-0.276671 0.960965 -0.970286 -0.241963 156.046 218.43)"/><rect width="13.786" height="13.786" x="-.189" y=".658" stroke="#734a90" transform="matrix(0.517621 0.834389 -0.896546 0.481735 112.606 230.309)"/><rect width="13.786" height="13.786" x="-.189" y=".658" stroke="#734a90" transform="matrix(0.517621 0.834389 -0.896546 0.481735 174.073 245.637)"/><rect width="13.32" height="14.239" x="-.623" y=".36" stroke="#734a90" transform="matrix(-0.276671 0.960965 -0.970286 -0.241963 149.018 243.226)"/><rect width="13.786" height="13.786" x="-.189" y=".658" stroke="#734a90" transform="matrix(0.517621 0.834389 -0.896546 0.481735 104.683 257.831)"/><rect width="13.786" height="13.786" x="-.189" y=".658" stroke="#734a90" transform="matrix(0.517621 0.834389 -0.896546 0.481735 166.149 273.159)"/><rect width="13.32" height="14.239" x="-.623" y=".36" stroke="#734a90" transform="matrix(-0.276671 0.960965 -0.970286 -0.241963 141.094 270.748)"/><rect width="13.786" height="13.786" x="-.189" y=".658" stroke="#734a90" transform="matrix(0.517621 0.834389 -0.896546 0.481735 96.7585 285.352)"/><rect width="13.786" height="13.786" x="-.189" y=".658" stroke="#734a90" transform="matrix(0.517621 0.834389 -0.896546 0.481735 158.225 300.68)"/><rect width="13.32" height="14.239" x="-.623" y=".36" stroke="#734a90" transform="matrix(-0.276671 0.960965 -0.970286 -0.241963 133.17 298.269)"/><rect width="13.786" height="13.786" x="-.189" y=".658" stroke="#734a90" transform="matrix(0.517621 0.834389 -0.896546 0.481735 88.8363 312.874)"/><rect width="13.786" height="13.786" x="-.189" y=".658" stroke="#734a90" transform="matrix(0.517621 0.834389 -0.896546 0.481735 150.303 328.202)"/><rect width="13.32" height="14.239" x="-.623" y=".36" stroke="#734a90" transform="matrix(-0.276671 0.960965 -0.970286 -0.241963 125.248 325.791)"/><rect width="13.786" height="13.786" x="-.189" y=".658" stroke="#734a90" transform="matrix(0.517621 0.834389 -0.896546 0.481735 80.913 340.396)"/><rect width="13.786" height="13.786" x="-.189" y=".658" stroke="#734a90" transform="matrix(0.517621 0.834389 -0.896546 0.481735 142.38 355.724)"/><rect width="13.32" height="14.239" x="-.623" y=".36" stroke="#734a90" transform="matrix(-0.276671 0.960965 -0.970286 -0.241963 117.325 353.313)"/><rect width="13.786" height="13.786" x="-.189" y=".658" stroke="#734a90" transform="matrix(0.517621 0.834389 -0.896546 0.481735 281.257 -11.5946)"/><rect width="13.786" height="13.786" x="-.189" y=".658" stroke="#734a90" transform="matrix(0.517621 0.834389 -0.896546 0.481735 342.724 3.73351)"/><rect width="13.32" height="14.239" x="-.623" y=".36" stroke="#734a90" transform="matrix(-0.276671 0.960965 -0.970286 -0.241963 317.669 1.32248)"/><rect width="13.786" height="13.786" x="-.189" y=".658" stroke="#734a90" transform="matrix(0.517621 0.834389 -0.896546 0.481735 273.333 15.9269)"/><rect width="13.786" height="13.786" x="-.189" y=".658" stroke="#734a90" transform="matrix(0.517621 0.834389 -0.896546 0.481735 334.799 31.255)"/><rect width="13.32" height="14.239" x="-.623" y=".36" stroke="#734a90" transform="matrix(-0.276671 0.960965 -0.970286 -0.241963 309.744 28.844)"/><rect width="13.786" height="13.786" x="-.189" y=".658" stroke="#734a90" transform="matrix(0.517621 0.834389 -0.896546 0.481735 265.408 43.4491)"/><rect width="13.786" height="13.786" x="-.189" y=".658" stroke="#734a90" transform="matrix(0.517621 0.834389 -0.896546 0.481735 326.875 58.7772)"/><rect width="13.32" height="14.239" x="-.623" y=".36" stroke="#734a90" transform="matrix(-0.276671 0.960965 -0.970286 -0.241963 301.82 56.3662)"/><rect width="13.786" height="13.786" x="-.189" y=".658" stroke="#734a90" transform="matrix(0.517621 0.834389 -0.896546 0.481735 257.486 70.9703)"/><rect width="13.786" height="13.786" x="-.189" y=".658" stroke="#734a90" transform="matrix(0.517621 0.834389 -0.896546 0.481735 318.953 86.2985)"/><rect width="13.32" height="14.239" x="-.623" y=".36" stroke="#734a90" transform="matrix(-0.276671 0.960965 -0.970286 -0.241963 293.898 83.8874)"/><rect width="13.786" height="13.786" x="-.189" y=".658" stroke="#734a90" transform="matrix(0.517621 0.834389 -0.896546 0.481735 249.562 98.4921)"/><rect width="13.786" height="13.786" x="-.189" y=".658" stroke="#734a90" transform="matrix(0.517621 0.834389 -0.896546 0.481735 311.028 113.82)"/><rect width="13.32" height="14.239" x="-.623" y=".36" stroke="#734a90" transform="matrix(-0.276671 0.960965 -0.970286 -0.241963 285.973 111.409)"/><rect width="13.786" height="13.786" x="-.189" y=".658" stroke="#734a90" transform="matrix(0.517621 0.834389 -0.896546 0.481735 241.639 126.014)"/><rect width="13.786" height="13.786" x="-.189" y=".658" stroke="#734a90" transform="matrix(0.517621 0.834389 -0.896546 0.481735 303.105 141.342)"/><rect width="13.32" height="14.239" x="-.623" y=".36" stroke="#734a90" transform="matrix(-0.276671 0.960965 -0.970286 -0.241963 278.05 138.931)"/><rect width="13.786" height="13.786" x="-.189" y=".658" stroke="#734a90" transform="matrix(0.517621 0.834389 -0.896546 0.481735 233.723 154.215)"/><rect width="13.786" height="13.786" x="-.189" y=".658" stroke="#734a90" transform="matrix(0.517621 0.834389 -0.896546 0.481735 295.189 169.543)"/><rect width="13.32" height="14.239" x="-.623" y=".36" stroke="#734a90" transform="matrix(-0.276671 0.960965 -0.970286 -0.241963 270.134 167.132)"/><rect width="13.786" height="13.786" x="-.189" y=".658" stroke="#734a90" transform="matrix(0.517621 0.834389 -0.896546 0.481735 226.563 179.083)"/><rect width="13.786" height="13.786" x="-.189" y=".658" stroke="#734a90" transform="matrix(0.517621 0.834389 -0.896546 0.481735 288.029 194.411)"/><rect width="13.32" height="14.239" x="-.623" y=".36" stroke="#734a90" transform="matrix(-0.276671 0.960965 -0.970286 -0.241963 262.974 192)"/><rect width="13.786" height="13.786" x="-.189" y=".658" stroke="#734a90" transform="matrix(0.517621 0.834389 -0.896546 0.481735 219.431 203.851)"/><rect width="13.786" height="13.786" x="-.189" y=".658" stroke="#734a90" transform="matrix(0.517621 0.834389 -0.896546 0.481735 280.897 219.18)"/><rect width="13.32" height="14.239" x="-.623" y=".36" stroke="#734a90" transform="matrix(-0.276671 0.960965 -0.970286 -0.241963 255.842 216.769)"/><rect width="13.786" height="13.786" x="-.189" y=".658" stroke="#734a90" transform="matrix(0.517621 0.834389 -0.896546 0.481735 212.3 228.622)"/><rect width="13.786" height="13.786" x="-.189" y=".658" stroke="#734a90" transform="matrix(0.517621 0.834389 -0.896546 0.481735 273.767 243.95)"/><rect width="13.32" height="14.239" x="-.623" y=".36" stroke="#734a90" transform="matrix(-0.276671 0.960965 -0.970286 -0.241963 248.712 241.539)"/><rect width="13.786" height="13.786" x="-.189" y=".658" stroke="#734a90" transform="matrix(0.517621 0.834389 -0.896546 0.481735 205.273 253.417)"/><rect width="13.786" height="13.786" x="-.189" y=".658" stroke="#734a90" transform="matrix(0.517621 0.834389 -0.896546 0.481735 266.74 268.745)"/><rect width="13.32" height="14.239" x="-.623" y=".36" stroke="#734a90" transform="matrix(-0.276671 0.960965 -0.970286 -0.241963 241.685 266.334)"/><rect width="13.786" height="13.786" x="-.189" y=".658" stroke="#734a90" transform="matrix(0.517621 0.834389 -0.896546 0.481735 197.35 280.939)"/><rect width="13.786" height="13.786" x="-.189" y=".658" stroke="#734a90" transform="matrix(0.517621 0.834389 -0.896546 0.481735 258.816 296.267)"/><rect width="13.32" height="14.239" x="-.623" y=".36" stroke="#734a90" transform="matrix(-0.276671 0.960965 -0.970286 -0.241963 233.761 293.856)"/><rect width="13.786" height="13.786" x="-.189" y=".658" stroke="#734a90" transform="matrix(0.517621 0.834389 -0.896546 0.481735 189.425 308.461)"/><rect width="13.786" height="13.786" x="-.189" y=".658" stroke="#734a90" transform="matrix(0.517621 0.834389 -0.896546 0.481735 250.892 323.789)"/><rect width="13.32" height="14.239" x="-.623" y=".36" stroke="#734a90" transform="matrix(-0.276671 0.960965 -0.970286 -0.241963 225.837 321.378)"/><rect width="13.786" height="13.786" x="-.189" y=".658" stroke="#734a90" transform="matrix(0.517621 0.834389 -0.896546 0.481735 181.502 335.982)"/><rect width="13.786" height="13.786" x="-.189" y=".658" stroke="#734a90" transform="matrix(0.517621 0.834389 -0.896546 0.481735 242.969 351.31)"/><rect width="13.32" height="14.239" x="-.623" y=".36" stroke="#734a90" transform="matrix(-0.276671 0.960965 -0.970286 -0.241963 217.914 348.899)"/><rect width="13.786" height="13.786" x="-.189" y=".658" stroke="#734a90" transform="matrix(0.517621 0.834389 -0.896546 0.481735 380.655 -13.3556)"/><rect width="13.786" height="13.786" x="-.189" y=".658" stroke="#734a90" transform="matrix(0.517621 0.834389 -0.896546 0.481735 442.121 1.97252)"/><rect width="13.32" height="14.239" x="-.623" y=".36" stroke="#734a90" transform="matrix(-0.276671 0.960965 -0.970286 -0.241963 417.066 -0.438503)"/><rect width="13.786" height="13.786" x="-.189" y=".658" stroke="#734a90" transform="matrix(0.517621 0.834389 -0.896546 0.481735 373.629 11.4408)"/><rect width="13.786" height="13.786" x="-.189" y=".658" stroke="#734a90" transform="matrix(0.517621 0.834389 -0.896546 0.481735 435.095 26.7689)"/><rect width="13.32" height="14.239" x="-.623" y=".36" stroke="#734a90" transform="matrix(-0.276671 0.960965 -0.970286 -0.241963 410.04 24.3579)"/><rect width="13.786" height="13.786" x="-.189" y=".658" stroke="#734a90" transform="matrix(0.517621 0.834389 -0.896546 0.481735 365.704 38.962)"/><rect width="13.786" height="13.786" x="-.189" y=".658" stroke="#734a90" transform="matrix(0.517621 0.834389 -0.896546 0.481735 427.171 54.2902)"/><rect width="13.32" height="14.239" x="-.623" y=".36" stroke="#734a90" transform="matrix(-0.276671 0.960965 -0.970286 -0.241963 402.116 51.8791)"/><rect width="13.786" height="13.786" x="-.189" y=".658" stroke="#734a90" transform="matrix(0.517621 0.834389 -0.896546 0.481735 357.78 66.4838)"/><rect width="13.786" height="13.786" x="-.189" y=".658" stroke="#734a90" transform="matrix(0.517621 0.834389 -0.896546 0.481735 419.247 81.8119)"/><rect width="13.32" height="14.239" x="-.623" y=".36" stroke="#734a90" transform="matrix(-0.276671 0.960965 -0.970286 -0.241963 394.192 79.4009)"/><rect width="13.786" height="13.786" x="-.189" y=".658" stroke="#734a90" transform="matrix(0.517621 0.834389 -0.896546 0.481735 349.858 94.006)"/><rect width="13.786" height="13.786" x="-.189" y=".658" stroke="#734a90" transform="matrix(0.517621 0.834389 -0.896546 0.481735 411.325 109.334)"/><rect width="13.32" height="14.239" x="-.623" y=".36" stroke="#734a90" transform="matrix(-0.276671 0.960965 -0.970286 -0.241963 386.269 106.923)"/><rect width="13.786" height="13.786" x="-.189" y=".658" stroke="#734a90" transform="matrix(0.517621 0.834389 -0.896546 0.481735 341.935 121.527)"/><rect width="13.786" height="13.786" x="-.189" y=".658" stroke="#734a90" transform="matrix(0.517621 0.834389 -0.896546 0.481735 403.401 136.855)"/><rect width="13.32" height="14.239" x="-.623" y=".36" stroke="#734a90" transform="matrix(-0.276671 0.960965 -0.970286 -0.241963 378.346 134.444)"/><rect width="13.786" height="13.786" x="-.189" y=".658" stroke="#734a90" transform="matrix(0.517621 0.834389 -0.896546 0.481735 334.01 149.049)"/><rect width="13.786" height="13.786" x="-.189" y=".658" stroke="#734a90" transform="matrix(0.517621 0.834389 -0.896546 0.481735 395.477 164.377)"/><rect width="13.32" height="14.239" x="-.623" y=".36" stroke="#734a90" transform="matrix(-0.276671 0.960965 -0.970286 -0.241963 370.422 161.966)"/><rect width="13.786" height="13.786" x="-.189" y=".658" stroke="#734a90" transform="matrix(0.517621 0.834389 -0.896546 0.481735 326.093 177.25)"/><rect width="13.786" height="13.786" x="-.189" y=".658" stroke="#734a90" transform="matrix(0.517621 0.834389 -0.896546 0.481735 387.559 192.578)"/><rect width="13.32" height="14.239" x="-.623" y=".36" stroke="#734a90" transform="matrix(-0.276671 0.960965 -0.970286 -0.241963 362.504 190.167)"/><rect width="13.786" height="13.786" x="-.189" y=".658" stroke="#734a90" transform="matrix(0.517621 0.834389 -0.896546 0.481735 318.934 202.117)"/><rect width="13.786" height="13.786" x="-.189" y=".658" stroke="#734a90" transform="matrix(0.517621 0.834389 -0.896546 0.481735 380.4 217.445)"/><rect width="13.32" height="14.239" x="-.623" y=".36" stroke="#734a90" transform="matrix(-0.276671 0.960965 -0.970286 -0.241963 355.345 215.034)"/><rect width="13.786" height="13.786" x="-.189" y=".658" stroke="#734a90" transform="matrix(0.517621 0.834389 -0.896546 0.481735 311.803 226.887)"/><rect width="13.786" height="13.786" x="-.189" y=".658" stroke="#734a90" transform="matrix(0.517621 0.834389 -0.896546 0.481735 373.269 242.215)"/><rect width="13.32" height="14.239" x="-.623" y=".36" stroke="#734a90" transform="matrix(-0.276671 0.960965 -0.970286 -0.241963 348.214 239.804)"/><rect width="13.786" height="13.786" x="-.189" y=".658" stroke="#734a90" transform="matrix(0.517621 0.834389 -0.896546 0.481735 304.672 251.657)"/><rect width="13.786" height="13.786" x="-.189" y=".658" stroke="#734a90" transform="matrix(0.517621 0.834389 -0.896546 0.481735 366.138 266.985)"/><rect width="13.32" height="14.239" x="-.623" y=".36" stroke="#734a90" transform="matrix(-0.276671 0.960965 -0.970286 -0.241963 341.083 264.574)"/><rect width="13.786" height="13.786" x="-.189" y=".658" stroke="#734a90" transform="matrix(0.517621 0.834389 -0.896546 0.481735 297.645 276.452)"/><rect width="13.786" height="13.786" x="-.189" y=".658" stroke="#734a90" transform="matrix(0.517621 0.834389 -0.896546 0.481735 359.111 291.78)"/><rect width="13.32" height="14.239" x="-.623" y=".36" stroke="#734a90" transform="matrix(-0.276671 0.960965 -0.970286 -0.241963 334.056 289.369)"/><rect width="13.786" height="13.786" x="-.189" y=".658" stroke="#734a90" transform="matrix(0.517621 0.834389 -0.896546 0.481735 289.722 303.974)"/><rect width="13.786" height="13.786" x="-.189" y=".658" stroke="#734a90" transform="matrix(0.517621 0.834389 -0.896546 0.481735 351.188 319.302)"/><rect width="13.32" height="14.239" x="-.623" y=".36" stroke="#734a90" transform="matrix(-0.276671 0.960965 -0.970286 -0.241963 326.133 316.891)"/><rect width="13.786" height="13.786" x="-.189" y=".658" stroke="#734a90" transform="matrix(0.517621 0.834389 -0.896546 0.481735 281.796 331.495)"/><rect width="13.786" height="13.786" x="-.189" y=".658" stroke="#734a90" transform="matrix(0.517621 0.834389 -0.896546 0.481735 343.263 346.824)"/><rect width="13.32" height="14.239" x="-.623" y=".36" stroke="#734a90" transform="matrix(-0.276671 0.960965 -0.970286 -0.241963 318.208 344.413)"/><rect width="13.786" height="13.786" x="-.189" y=".658" stroke="#734a90" transform="matrix(0.517621 0.834389 -0.896546 0.481735 273.874 359.017)"/><rect width="13.786" height="13.786" x="-.189" y=".658" stroke="#734a90" transform="matrix(0.517621 0.834389 -0.896546 0.481735 480.159 -15.09)"/><rect width="13.786" height="13.786" x="-.189" y=".658" stroke="#734a90" transform="matrix(0.517621 0.834389 -0.896546 0.481735 541.625 0.23815)"/><rect width="13.32" height="14.239" x="-.623" y=".36" stroke="#734a90" transform="matrix(-0.276671 0.960965 -0.970286 -0.241963 516.57 -2.17288)"/><rect width="13.786" height="13.786" x="-.189" y=".658" stroke="#734a90" transform="matrix(0.517621 0.834389 -0.896546 0.481735 473.027 9.67956)"/><rect width="13.786" height="13.786" x="-.189" y=".658" stroke="#734a90" transform="matrix(0.517621 0.834389 -0.896546 0.481735 534.493 25.0077)"/><rect width="13.32" height="14.239" x="-.623" y=".36" stroke="#734a90" transform="matrix(-0.276671 0.960965 -0.970286 -0.241963 509.438 22.5967)"/><rect width="13.786" height="13.786" x="-.189" y=".658" stroke="#734a90" transform="matrix(0.517621 0.834389 -0.896546 0.481735 466 34.4755)"/><rect width="13.786" height="13.786" x="-.189" y=".658" stroke="#734a90" transform="matrix(0.517621 0.834389 -0.896546 0.481735 527.466 49.8036)"/><rect width="13.32" height="14.239" x="-.623" y=".36" stroke="#734a90" transform="matrix(-0.276671 0.960965 -0.970286 -0.241963 502.411 47.3926)"/><rect width="13.786" height="13.786" x="-.189" y=".658" stroke="#734a90" transform="matrix(0.517621 0.834389 -0.896546 0.481735 458.076 61.9969)"/><rect width="13.786" height="13.786" x="-.189" y=".658" stroke="#734a90" transform="matrix(0.517621 0.834389 -0.896546 0.481735 519.543 77.3251)"/><rect width="13.32" height="14.239" x="-.623" y=".36" stroke="#734a90" transform="matrix(-0.276671 0.960965 -0.970286 -0.241963 494.488 74.914)"/><rect width="13.786" height="13.786" x="-.189" y=".658" stroke="#734a90" transform="matrix(0.517621 0.834389 -0.896546 0.481735 450.153 89.5189)"/><rect width="13.786" height="13.786" x="-.189" y=".658" stroke="#734a90" transform="matrix(0.517621 0.834389 -0.896546 0.481735 511.62 104.847)"/><rect width="13.32" height="14.239" x="-.623" y=".36" stroke="#734a90" transform="matrix(-0.276671 0.960965 -0.970286 -0.241963 486.565 102.436)"/><rect width="13.786" height="13.786" x="-.189" y=".658" stroke="#734a90" transform="matrix(0.517621 0.834389 -0.896546 0.481735 442.229 117.04)"/><rect width="13.786" height="13.786" x="-.189" y=".658" stroke="#734a90" transform="matrix(0.517621 0.834389 -0.896546 0.481735 503.696 132.369)"/><rect width="13.32" height="14.239" x="-.623" y=".36" stroke="#734a90" transform="matrix(-0.276671 0.960965 -0.970286 -0.241963 478.64 129.957)"/><rect width="13.786" height="13.786" x="-.189" y=".658" stroke="#734a90" transform="matrix(0.517621 0.834389 -0.896546 0.481735 434.307 144.562)"/><rect width="13.786" height="13.786" x="-.189" y=".658" stroke="#734a90" transform="matrix(0.517621 0.834389 -0.896546 0.481735 495.773 159.89)"/><rect width="13.32" height="14.239" x="-.623" y=".36" stroke="#734a90" transform="matrix(-0.276671 0.960965 -0.970286 -0.241963 470.718 157.479)"/><rect width="13.786" height="13.786" x="-.189" y=".658" stroke="#734a90" transform="matrix(0.517621 0.834389 -0.896546 0.481735 426.382 172.084)"/><rect width="13.786" height="13.786" x="-.189" y=".658" stroke="#734a90" transform="matrix(0.517621 0.834389 -0.896546 0.481735 487.849 187.412)"/><rect width="13.32" height="14.239" x="-.623" y=".36" stroke="#734a90" transform="matrix(-0.276671 0.960965 -0.970286 -0.241963 462.794 185.001)"/><rect width="13.786" height="13.786" x="-.189" y=".658" stroke="#734a90" transform="matrix(0.517621 0.834389 -0.896546 0.481735 418.465 200.285)"/><rect width="13.786" height="13.786" x="-.189" y=".658" stroke="#734a90" transform="matrix(0.517621 0.834389 -0.896546 0.481735 479.932 215.613)"/><rect width="13.32" height="14.239" x="-.623" y=".36" stroke="#734a90" transform="matrix(-0.276671 0.960965 -0.970286 -0.241963 454.877 213.202)"/><rect width="13.786" height="13.786" x="-.189" y=".658" stroke="#734a90" transform="matrix(0.517621 0.834389 -0.896546 0.481735 411.305 225.152)"/><rect width="13.786" height="13.786" x="-.189" y=".658" stroke="#734a90" transform="matrix(0.517621 0.834389 -0.896546 0.481735 472.772 240.481)"/><rect width="13.32" height="14.239" x="-.623" y=".36" stroke="#734a90" transform="matrix(-0.276671 0.960965 -0.970286 -0.241963 447.717 238.07)"/><rect width="13.786" height="13.786" x="-.189" y=".658" stroke="#734a90" transform="matrix(0.517621 0.834389 -0.896546 0.481735 404.173 249.922)"/><rect width="13.786" height="13.786" x="-.189" y=".658" stroke="#734a90" transform="matrix(0.517621 0.834389 -0.896546 0.481735 465.64 265.25)"/><rect width="13.32" height="14.239" x="-.623" y=".36" stroke="#734a90" transform="matrix(-0.276671 0.960965 -0.970286 -0.241963 440.585 262.839)"/><rect width="13.786" height="13.786" x="-.189" y=".658" stroke="#734a90" transform="matrix(0.517621 0.834389 -0.896546 0.481735 397.043 274.692)"/><rect width="13.786" height="13.786" x="-.189" y=".658" stroke="#734a90" transform="matrix(0.517621 0.834389 -0.896546 0.481735 458.509 290.02)"/><rect width="13.32" height="14.239" x="-.623" y=".36" stroke="#734a90" transform="matrix(-0.276671 0.960965 -0.970286 -0.241963 433.454 287.609)"/><rect width="13.786" height="13.786" x="-.189" y=".658" stroke="#734a90" transform="matrix(0.517621 0.834389 -0.896546 0.481735 390.016 299.487)"/><rect width="13.786" height="13.786" x="-.189" y=".658" stroke="#734a90" transform="matrix(0.517621 0.834389 -0.896546 0.481735 451.482 314.816)"/><rect width="13.32" height="14.239" x="-.623" y=".36" stroke="#734a90" transform="matrix(-0.276671 0.960965 -0.970286 -0.241963 426.427 312.405)"/><rect width="13.786" height="13.786" x="-.189" y=".658" stroke="#734a90" transform="matrix(0.517621 0.834389 -0.896546 0.481735 382.092 327.009)"/><rect width="13.786" height="13.786" x="-.189" y=".658" stroke="#734a90" transform="matrix(0.517621 0.834389 -0.896546 0.481735 443.559 342.337)"/><rect width="13.32" height="14.239" x="-.623" y=".36" stroke="#734a90" transform="matrix(-0.276671 0.960965 -0.970286 -0.241963 418.504 339.926)"/><rect width="13.786" height="13.786" x="-.189" y=".658" stroke="#734a90" transform="matrix(0.517621 0.834389 -0.896546 0.481735 374.168 354.531)"/><rect width="13.786" height="13.786" x="-.189" y=".658" stroke="#734a90" transform="matrix(0.517621 0.834389 -0.896546 0.481735 579.661 -16.8244)"/><rect width="13.786" height="13.786" x="-.189" y=".658" stroke="#734a90" transform="matrix(0.517621 0.834389 -0.896546 0.481735 641.128 -1.49623)"/><rect width="13.32" height="14.239" x="-.623" y=".36" stroke="#734a90" transform="matrix(-0.276671 0.960965 -0.970286 -0.241963 616.073 -3.90725)"/><rect width="13.786" height="13.786" x="-.189" y=".658" stroke="#734a90" transform="matrix(0.517621 0.834389 -0.896546 0.481735 572.529 7.94494)"/><rect width="13.786" height="13.786" x="-.189" y=".658" stroke="#734a90" transform="matrix(0.517621 0.834389 -0.896546 0.481735 633.996 23.2731)"/><rect width="13.32" height="14.239" x="-.623" y=".36" stroke="#734a90" transform="matrix(-0.276671 0.960965 -0.970286 -0.241963 608.941 20.862)"/><rect width="13.786" height="13.786" x="-.189" y=".658" stroke="#734a90" transform="matrix(0.517621 0.834389 -0.896546 0.481735 565.399 32.7147)"/><rect width="13.786" height="13.786" x="-.189" y=".658" stroke="#734a90" transform="matrix(0.517621 0.834389 -0.896546 0.481735 626.865 48.0428)"/><rect width="13.32" height="14.239" x="-.623" y=".36" stroke="#734a90" transform="matrix(-0.276671 0.960965 -0.970286 -0.241963 601.81 45.6318)"/><rect width="13.786" height="13.786" x="-.189" y=".658" stroke="#734a90" transform="matrix(0.517621 0.834389 -0.896546 0.481735 558.372 57.5106)"/><rect width="13.786" height="13.786" x="-.189" y=".658" stroke="#734a90" transform="matrix(0.517621 0.834389 -0.896546 0.481735 619.838 72.8387)"/><rect width="13.32" height="14.239" x="-.623" y=".36" stroke="#734a90" transform="matrix(-0.276671 0.960965 -0.970286 -0.241963 594.783 70.4277)"/><rect width="13.786" height="13.786" x="-.189" y=".658" stroke="#734a90" transform="matrix(0.517621 0.834389 -0.896546 0.481735 550.448 85.0321)"/><rect width="13.786" height="13.786" x="-.189" y=".658" stroke="#734a90" transform="matrix(0.517621 0.834389 -0.896546 0.481735 611.915 100.36)"/><rect width="13.32" height="14.239" x="-.623" y=".36" stroke="#734a90" transform="matrix(-0.276671 0.960965 -0.970286 -0.241963 586.86 97.9492)"/><rect width="13.786" height="13.786" x="-.189" y=".658" stroke="#734a90" transform="matrix(0.517621 0.834389 -0.896546 0.481735 542.524 112.554)"/><rect width="13.786" height="13.786" x="-.189" y=".658" stroke="#734a90" transform="matrix(0.517621 0.834389 -0.896546 0.481735 603.991 127.882)"/><rect width="13.32" height="14.239" x="-.623" y=".36" stroke="#734a90" transform="matrix(-0.276671 0.960965 -0.970286 -0.241963 578.936 125.471)"/><rect width="13.786" height="13.786" x="-.189" y=".658" stroke="#734a90" transform="matrix(0.517621 0.834389 -0.896546 0.481735 534.601 140.075)"/><rect width="13.786" height="13.786" x="-.189" y=".658" stroke="#734a90" transform="matrix(0.517621 0.834389 -0.896546 0.481735 596.067 155.403)"/><rect width="13.32" height="14.239" x="-.623" y=".36" stroke="#734a90" transform="matrix(-0.276671 0.960965 -0.970286 -0.241963 571.012 152.992)"/><rect width="13.786" height="13.786" x="-.189" y=".658" stroke="#734a90" transform="matrix(0.517621 0.834389 -0.896546 0.481735 526.678 167.597)"/><rect width="13.786" height="13.786" x="-.189" y=".658" stroke="#734a90" transform="matrix(0.517621 0.834389 -0.896546 0.481735 588.144 182.925)"/><rect width="13.32" height="14.239" x="-.623" y=".36" stroke="#734a90" transform="matrix(-0.276671 0.960965 -0.970286 -0.241963 563.089 180.514)"/><rect width="13.786" height="13.786" x="-.189" y=".658" stroke="#734a90" transform="matrix(0.517621 0.834389 -0.896546 0.481735 518.753 195.119)"/><rect width="13.786" height="13.786" x="-.189" y=".658" stroke="#734a90" transform="matrix(0.517621 0.834389 -0.896546 0.481735 580.22 210.447)"/><rect width="13.32" height="14.239" x="-.623" y=".36" stroke="#734a90" transform="matrix(-0.276671 0.960965 -0.970286 -0.241963 555.165 208.036)"/><rect width="13.786" height="13.786" x="-.189" y=".658" stroke="#734a90" transform="matrix(0.517621 0.834389 -0.896546 0.481735 510.836 223.32)"/><rect width="13.786" height="13.786" x="-.189" y=".658" stroke="#734a90" transform="matrix(0.517621 0.834389 -0.896546 0.481735 572.302 238.648)"/><rect width="13.32" height="14.239" x="-.623" y=".36" stroke="#734a90" transform="matrix(-0.276671 0.960965 -0.970286 -0.241963 547.247 236.237)"/><rect width="13.786" height="13.786" x="-.189" y=".658" stroke="#734a90" transform="matrix(0.517621 0.834389 -0.896546 0.481735 503.676 248.187)"/><rect width="13.786" height="13.786" x="-.189" y=".658" stroke="#734a90" transform="matrix(0.517621 0.834389 -0.896546 0.481735 565.143 263.515)"/><rect width="13.32" height="14.239" x="-.623" y=".36" stroke="#734a90" transform="matrix(-0.276671 0.960965 -0.970286 -0.241963 540.088 261.104)"/><rect width="13.786" height="13.786" x="-.189" y=".658" stroke="#734a90" transform="matrix(0.517621 0.834389 -0.896546 0.481735 496.545 272.957)"/><rect width="13.786" height="13.786" x="-.189" y=".658" stroke="#734a90" transform="matrix(0.517621 0.834389 -0.896546 0.481735 558.012 288.285)"/><rect width="13.32" height="14.239" x="-.623" y=".36" stroke="#734a90" transform="matrix(-0.276671 0.960965 -0.970286 -0.241963 532.957 285.874)"/><rect width="13.786" height="13.786" x="-.189" y=".658" stroke="#734a90" transform="matrix(0.517621 0.834389 -0.896546 0.481735 489.413 297.726)"/><rect width="13.786" height="13.786" x="-.189" y=".658" stroke="#734a90" transform="matrix(0.517621 0.834389 -0.896546 0.481735 550.88 313.055)"/><rect width="13.32" height="14.239" x="-.623" y=".36" stroke="#734a90" transform="matrix(-0.276671 0.960965 -0.970286 -0.241963 525.825 310.644)"/><rect width="13.786" height="13.786" x="-.189" y=".658" stroke="#734a90" transform="matrix(0.517621 0.834389 -0.896546 0.481735 482.388 322.522)"/><rect width="13.786" height="13.786" x="-.189" y=".658" stroke="#734a90" transform="matrix(0.517621 0.834389 -0.896546 0.481735 543.854 337.85)"/><rect width="13.32" height="14.239" x="-.623" y=".36" stroke="#734a90" transform="matrix(-0.276671 0.960965 -0.970286 -0.241963 518.799 335.439)"/><rect width="13.786" height="13.786" x="-.189" y=".658" stroke="#734a90" transform="matrix(0.517621 0.834389 -0.896546 0.481735 474.463 350.044)"/><rect width="13.32" height="14.239" x="-.623" y=".36" stroke="#734a90" transform="matrix(-0.276671 0.960965 -0.970286 -0.241963 510.875 362.961)"/><rect width="13.786" height="13.786" x="-.189" y=".658" stroke="#734a90" transform="matrix(0.517621 0.834389 -0.896546 0.481735 50.5033 -10.1412)"/><rect width="13.32" height="14.239" x="-.623" y=".36" stroke="#734a90" transform="matrix(-0.276671 0.960965 -0.970286 -0.241963 25.4482 -12.5523)"/><rect width="13.786" height="13.786" x="-.189" y=".658" stroke="#734a90" transform="matrix(0.517621 0.834389 -0.896546 0.481735 42.579 17.3802)"/><rect width="13.32" height="14.239" x="-.623" y=".36" stroke="#734a90" transform="matrix(-0.276671 0.960965 -0.970286 -0.241963 17.5239 14.9692)"/><rect width="13.786" height="13.786" x="-.189" y=".658" stroke="#734a90" transform="matrix(0.517621 0.834389 -0.896546 0.481735 34.6568 44.9017)"/><rect width="13.32" height="14.239" x="-.623" y=".36" stroke="#734a90" transform="matrix(-0.276671 0.960965 -0.970286 -0.241963 9.60173 42.4907)"/><rect width="13.786" height="13.786" x="-.189" y=".658" stroke="#734a90" transform="matrix(0.517621 0.834389 -0.896546 0.481735 26.7336 72.4237)"/><rect width="13.32" height="14.239" x="-.623" y=".36" stroke="#734a90" transform="matrix(-0.276671 0.960965 -0.970286 -0.241963 1.67851 70.0127)"/><rect width="13.786" height="13.786" x="-.189" y=".658" stroke="#734a90" transform="matrix(0.517621 0.834389 -0.896546 0.481735 18.8159 100.624)"/><rect width="13.786" height="13.786" x="-.189" y=".658" stroke="#734a90" transform="matrix(0.517621 0.834389 -0.896546 0.481735 11.6569 125.492)"/><rect width="13.786" height="13.786" x="-.189" y=".658" stroke="#734a90" transform="matrix(0.517621 0.834389 -0.896546 0.481735 4.52593 150.262)"/><rect width="13.786" height="13.786" x="-.189" y=".658" stroke="#734a90" transform="matrix(0.517621 0.834389 -0.896546 0.481735 -2.60584 175.031)"/><rect width="13.786" height="13.786" x="-.189" y=".658" stroke="#734a90" transform="matrix(0.517621 0.834389 -0.896546 0.481735 150.799 -14.6283)"/><rect width="13.786" height="13.786" x="-.189" y=".658" stroke="#734a90" transform="matrix(0.517621 0.834389 -0.896546 0.481735 81.4065 -2.43446)"/><rect width="13.786" height="13.786" x="-.189" y=".658" stroke="#734a90" transform="matrix(0.517621 0.834389 -0.896546 0.481735 142.873 12.8937)"/><rect width="13.32" height="14.239" x="-.623" y=".36" stroke="#734a90" transform="matrix(-0.276671 0.960965 -0.970286 -0.241963 117.818 10.4826)"/><rect width="13.786" height="13.786" x="-.189" y=".658" stroke="#734a90" transform="matrix(0.517621 0.834389 -0.896546 0.481735 73.4843 25.087)"/><rect width="13.786" height="13.786" x="-.189" y=".658" stroke="#734a90" transform="matrix(0.517621 0.834389 -0.896546 0.481735 134.951 40.4152)"/><rect width="13.32" height="14.239" x="-.623" y=".36" stroke="#734a90" transform="matrix(-0.276671 0.960965 -0.970286 -0.241963 109.896 38.0041)"/><rect width="13.786" height="13.786" x="-.189" y=".658" stroke="#734a90" transform="matrix(0.517621 0.834389 -0.896546 0.481735 65.5601 52.608)"/><rect width="13.786" height="13.786" x="-.189" y=".658" stroke="#734a90" transform="matrix(0.517621 0.834389 -0.896546 0.481735 127.027 67.9361)"/><rect width="13.32" height="14.239" x="-.623" y=".36" stroke="#734a90" transform="matrix(-0.276671 0.960965 -0.970286 -0.241963 101.972 65.5251)"/><rect width="13.786" height="13.786" x="-.189" y=".658" stroke="#734a90" transform="matrix(0.517621 0.834389 -0.896546 0.481735 57.6367 80.1305)"/><rect width="13.786" height="13.786" x="-.189" y=".658" stroke="#734a90" transform="matrix(0.517621 0.834389 -0.896546 0.481735 119.103 95.4586)"/><rect width="13.32" height="14.239" x="-.623" y=".36" stroke="#734a90" transform="matrix(-0.276671 0.960965 -0.970286 -0.241963 94.0483 93.0476)"/><rect width="13.786" height="13.786" x="-.189" y=".658" stroke="#734a90" transform="matrix(0.517621 0.834389 -0.896546 0.481735 49.7219 108.332)"/><rect width="13.786" height="13.786" x="-.189" y=".658" stroke="#734a90" transform="matrix(0.517621 0.834389 -0.896546 0.481735 111.189 123.66)"/><rect width="13.32" height="14.239" x="-.623" y=".36" stroke="#734a90" transform="matrix(-0.276671 0.960965 -0.970286 -0.241963 86.1334 121.249)"/><rect width="13.786" height="13.786" x="-.189" y=".658" stroke="#734a90" transform="matrix(0.517621 0.834389 -0.896546 0.481735 42.5622 133.199)"/><rect width="13.786" height="13.786" x="-.189" y=".658" stroke="#734a90" transform="matrix(0.517621 0.834389 -0.896546 0.481735 104.029 148.527)"/><rect width="13.32" height="14.239" x="-.623" y=".36" stroke="#734a90" transform="matrix(-0.276671 0.960965 -0.970286 -0.241963 78.9738 146.116)"/><rect width="13.786" height="13.786" x="-.189" y=".658" stroke="#734a90" transform="matrix(0.517621 0.834389 -0.896546 0.481735 35.4313 157.968)"/><rect width="13.786" height="13.786" x="-.189" y=".658" stroke="#734a90" transform="matrix(0.517621 0.834389 -0.896546 0.481735 96.898 173.296)"/><rect width="13.32" height="14.239" x="-.623" y=".36" stroke="#734a90" transform="matrix(-0.276671 0.960965 -0.970286 -0.241963 71.8429 170.885)"/><rect width="13.786" height="13.786" x="-.189" y=".658" stroke="#734a90" transform="matrix(0.517621 0.834389 -0.896546 0.481735 28.2994 182.738)"/><rect width="13.786" height="13.786" x="-.189" y=".658" stroke="#734a90" transform="matrix(0.517621 0.834389 -0.896546 0.481735 89.7662 198.066)"/><rect width="13.32" height="14.239" x="-.623" y=".36" stroke="#734a90" transform="matrix(-0.276671 0.960965 -0.970286 -0.241963 64.711 195.655)"/><rect width="13.786" height="13.786" x="-.189" y=".658" stroke="#734a90" transform="matrix(0.517621 0.834389 -0.896546 0.481735 21.2725 207.534)"/><rect width="13.786" height="13.786" x="-.189" y=".658" stroke="#734a90" transform="matrix(0.517621 0.834389 -0.896546 0.481735 82.7392 222.862)"/><rect width="13.32" height="14.239" x="-.623" y=".36" stroke="#734a90" transform="matrix(-0.276671 0.960965 -0.970286 -0.241963 57.6841 220.451)"/><rect width="13.786" height="13.786" x="-.189" y=".658" stroke="#734a90" transform="matrix(0.517621 0.834389 -0.896546 0.481735 13.3492 235.055)"/><rect width="13.786" height="13.786" x="-.189" y=".658" stroke="#734a90" transform="matrix(0.517621 0.834389 -0.896546 0.481735 74.8159 250.383)"/><rect width="13.32" height="14.239" x="-.623" y=".36" stroke="#734a90" transform="matrix(-0.276671 0.960965 -0.970286 -0.241963 49.7608 247.972)"/><rect width="13.786" height="13.786" x="-.189" y=".658" stroke="#734a90" transform="matrix(0.517621 0.834389 -0.896546 0.481735 5.42492 262.577)"/><rect width="13.786" height="13.786" x="-.189" y=".658" stroke="#734a90" transform="matrix(0.517621 0.834389 -0.896546 0.481735 66.8916 277.905)"/><rect width="13.32" height="14.239" x="-.623" y=".36" stroke="#734a90" transform="matrix(-0.276671 0.960965 -0.970286 -0.241963 41.8365 275.494)"/><rect width="13.786" height="13.786" x="-.189" y=".658" stroke="#734a90" transform="matrix(0.517621 0.834389 -0.896546 0.481735 -2.49836 290.099)"/><rect width="13.786" height="13.786" x="-.189" y=".658" stroke="#734a90" transform="matrix(0.517621 0.834389 -0.896546 0.481735 58.9683 305.427)"/><rect width="13.32" height="14.239" x="-.623" y=".36" stroke="#734a90" transform="matrix(-0.276671 0.960965 -0.970286 -0.241963 33.9133 303.016)"/><rect width="13.786" height="13.786" x="-.189" y=".658" stroke="#734a90" transform="matrix(0.517621 0.834389 -0.896546 0.481735 51.0462 332.948)"/><rect width="13.32" height="14.239" x="-.623" y=".36" stroke="#734a90" transform="matrix(-0.276671 0.960965 -0.970286 -0.241963 25.9911 330.537)"/><rect width="13.32" height="14.239" x="-.623" y=".36" stroke="#734a90" transform="matrix(-0.276671 0.960965 -0.970286 -0.241963 18.0668 358.059)"/></g></g></svg>