<?xml version="1.0"?>
<svg width="72" height="72" xmlns="http://www.w3.org/2000/svg" xmlns:svg="http://www.w3.org/2000/svg" enable-background="new 0 0 72 72" version="1.1" xml:space="preserve">
 <g class="layer">
  <title>Layer 1</title>
  <g fill-opacity="0" id="svg_1">
   <g id="svg_2">
    <path d="m19.24,61.8c-4.31,0 -7.24,-2.94 -7.24,-7.31l0,-44.19c0,-4.36 2.93,-7.3 7.25,-7.3c1.64,0 3.38,0.44 5.13,1.29l41.04,22.13c3.04,1.48 4.76,3.62 4.76,5.98c0,2.36 -1.71,4.49 -4.82,6.01l-40.9,22.05c-1.82,0.89 -3.56,1.33 -5.22,1.33zm0.01,-55.23c-2.71,0 -3.04,2.61 -3.04,3.74l0,44.19c0,1.12 0.33,3.73 3.03,3.73c0.89,0 1.95,-0.28 3.03,-0.81l40.9,-22.05c1.8,-0.88 2.79,-1.94 2.79,-2.95c0,-1.02 -0.99,-2.08 -2.72,-2.93l-41.05,-22.13c-1,-0.48 -2.06,-0.77 -2.94,-0.77z" fill="#000000" id="svg_3" stroke="#ffffff"/>
   </g>
   <g id="svg_4">
    <g id="svg_5">
     <path d="m40.2,43.97c-0.35,0 -0.69,-0.14 -0.9,-0.41c-0.31,-0.42 -0.16,-0.97 0.34,-1.23l0.57,-0.3c0.5,-0.27 1.14,-0.14 1.46,0.28c0.31,0.42 0.16,0.97 -0.34,1.23l-0.57,0.3c-0.17,0.1 -0.37,0.13 -0.56,0.13z" fill="#000000" id="svg_6" stroke="#ffffff"/>
    </g>
    <g id="svg_7">
     <path d="m24.76,52.21c-0.35,0 -0.69,-0.15 -0.89,-0.42c-0.32,-0.42 -0.17,-0.97 0.33,-1.23l11.83,-6.31c0.5,-0.26 1.15,-0.13 1.46,0.29c0.32,0.41 0.16,0.97 -0.33,1.22l-11.83,6.31c-0.18,0.1 -0.37,0.14 -0.57,0.14z" fill="#000000" id="svg_8" stroke="#ffffff"/>
    </g>
   </g>
  </g>
 </g>

</svg>